<?xml version="1.0" encoding="UTF-8"?>
<svg version="1.1" xmlns="http://www.w3.org/2000/svg" width="512" height="512">
<path d="M0 0 C1.45108658 0.00273422 1.45108658 0.00273422 2.93148804 0.00552368 C17.26440977 0.05095174 31.21023917 0.55983928 45.3125 3.3125 C46.65803955 3.55395752 46.65803955 3.55395752 48.03076172 3.80029297 C107.84088904 14.62287989 165.35495829 48.68064457 202.3125 97.3125 C202.72918945 97.85277832 203.14587891 98.39305664 203.57519531 98.94970703 C211.2584873 108.9447116 218.00092968 119.40459036 224.3125 130.3125 C224.70679199 130.98974121 225.10108398 131.66698242 225.50732422 132.36474609 C238.68961173 155.2833756 247.29510918 180.85822563 252.625 206.6875 C252.77243652 207.39817627 252.91987305 208.10885254 253.07177734 208.84106445 C256.05713787 224.48358366 256.6873098 240.11919606 256.625 256 C256.62226578 257.45108658 256.62226578 257.45108658 256.61947632 258.93148804 C256.57404826 273.26440977 256.06516072 287.21023917 253.3125 301.3125 C253.15152832 302.20952637 252.99055664 303.10655273 252.82470703 304.03076172 C244.93444853 347.63561969 225.24485057 388.77240471 196.3125 422.3125 C195.67828125 423.05757813 195.0440625 423.80265625 194.390625 424.5703125 C182.57948485 438.07529833 169.82889772 450.74668743 155.3125 461.3125 C154.16255169 462.16899066 153.01281411 463.02576433 151.86328125 463.8828125 C143.67160474 469.9234414 135.15604922 475.28255071 126.3125 480.3125 C125.68069824 480.67698242 125.04889648 481.04146484 124.39794922 481.41699219 C86.84415986 502.9115329 44.18195611 512.78876533 1.1875 512.625 C0.19393494 512.62317719 -0.79963013 512.62135437 -1.82330322 512.61947632 C-16.317192 512.57469978 -30.42886097 512.11360213 -44.6875 509.3125 C-45.58307617 509.15152832 -46.47865234 508.99055664 -47.40136719 508.82470703 C-107.21340465 498.00365541 -164.72893264 463.94570506 -201.6875 415.3125 C-202.10418945 414.77222168 -202.52087891 414.23194336 -202.95019531 413.67529297 C-210.6334873 403.6802884 -217.37592968 393.22040964 -223.6875 382.3125 C-224.08179199 381.63525879 -224.47608398 380.95801758 -224.88232422 380.26025391 C-238.06461173 357.3416244 -246.67010918 331.76677437 -252 305.9375 C-252.14743652 305.22682373 -252.29487305 304.51614746 -252.44677734 303.78393555 C-255.43213787 288.14141634 -256.0623098 272.50580394 -256 256.625 C-255.99817719 255.65760895 -255.99635437 254.6902179 -255.99447632 253.69351196 C-255.94904826 239.36059023 -255.44016072 225.41476083 -252.6875 211.3125 C-252.44604248 209.96696045 -252.44604248 209.96696045 -252.19970703 208.59423828 C-241.37712011 148.78411096 -207.31935543 91.27004171 -158.6875 54.3125 C-158.14722168 53.89581055 -157.60694336 53.47912109 -157.05029297 53.04980469 C-147.0552884 45.3665127 -136.59540964 38.62407032 -125.6875 32.3125 C-125.01025879 31.91820801 -124.33301758 31.52391602 -123.63525391 31.11767578 C-100.7166244 17.93538827 -75.14177437 9.32989082 -49.3125 4 C-48.60182373 3.85256348 -47.89114746 3.70512695 -47.15893555 3.55322266 C-31.51641634 0.56786213 -15.88080394 -0.0623098 0 0 Z " fill="#34CBFE" transform="translate(255.6875,-0.3125)"/>
<path d="M0 0 C11.66022099 9.32044199 11.66022099 9.32044199 14 14 C14.99 14.33 15.98 14.66 17 15 C18.5388419 16.55781513 18.5388419 16.55781513 20.18016338 18.54722691 C23.95923944 22.99711457 27.98452393 27.1242184 32.11738586 31.24436951 C32.90599776 32.03454139 33.69460966 32.82471328 34.50711888 33.63882977 C37.13169467 36.26737194 39.75980351 38.89235179 42.38793945 41.51733398 C44.27753597 43.40828641 46.16693697 45.2994324 48.05610657 47.19081116 C52.64247116 51.78160758 57.23151692 56.36971463 61.82155047 60.95684242 C65.55032223 64.68335161 69.27811171 68.41084079 73.00520897 72.13902473 C73.53655245 72.67052145 74.06789594 73.20201817 74.61534074 73.74962084 C75.69482477 74.82942461 76.77430656 75.90923061 77.85378613 76.98903883 C87.95875875 87.09685823 98.06678613 97.20161832 108.17587169 107.30532403 C116.85377045 115.97874772 125.52903319 124.65480074 134.20239258 133.33276367 C144.28038293 143.41610061 154.35998692 153.49781994 164.44218796 163.57694679 C165.51608403 164.65052431 166.589978 165.72410391 167.66386986 166.79768562 C168.45641411 167.58999846 168.45641411 167.58999846 169.26496935 168.39831762 C172.9925299 172.12501384 176.71892699 175.85287101 180.44487953 179.58117485 C184.97937164 184.11846572 189.51562929 188.65398238 194.05418954 193.18720412 C196.37062736 195.50100717 198.68597705 197.81588085 200.99971771 200.13238144 C203.50336052 202.63873636 206.01002994 205.14202334 208.51753235 207.64451599 C209.2539939 208.38320826 209.99045545 209.12190054 210.74923402 209.88297743 C211.41771118 210.54884683 212.08618833 211.21471624 212.77492237 211.90076351 C213.35361885 212.47929764 213.93231533 213.05783176 214.52854806 213.65389723 C215.97768483 215.10290548 215.97768483 215.10290548 218 216 C212.0316954 266.25940713 192.16257923 313.55597297 159 352 C158.36578125 352.74507813 157.7315625 353.49015625 157.078125 354.2578125 C145.26698485 367.76279833 132.51639772 380.43418743 118 391 C116.85005169 391.85649066 115.70031411 392.71326433 114.55078125 393.5703125 C106.35910474 399.6109414 97.84354922 404.97005071 89 410 C88.36819824 410.36448242 87.73639648 410.72896484 87.08544922 411.10449219 C50.34421342 432.13395425 8.18833657 442.47373447 -33.95922852 442.20581055 C-36.95793063 442.18737439 -39.95632475 442.18530297 -42.95507812 442.18554688 C-44.89583596 442.18063559 -46.83659175 442.17480898 -48.77734375 442.16796875 C-50.09640968 442.16629951 -50.09640968 442.16629951 -51.44212341 442.16459656 C-53.96371152 442.14556519 -56.4795194 442.07562065 -59 442 C-59.79965368 441.99432951 -60.59930737 441.98865902 -61.42319298 441.9828167 C-68.29372858 441.67784984 -71.51010453 439.77527526 -76.17456055 434.86303711 C-77.14011871 433.90185974 -77.14011871 433.90185974 -78.12518311 432.92126465 C-80.23453981 430.81074237 -82.31016095 428.67010373 -84.38671875 426.52734375 C-85.85590445 425.04388832 -87.32703271 423.56235447 -88.80000305 422.08265686 C-92.66619479 418.1878448 -96.50420932 414.26636355 -100.33728027 410.33898926 C-104.22604868 406.36538822 -108.14307205 402.41985122 -112.05664062 398.47070312 C-117.78925602 392.67472883 -123.51477348 386.87191886 -129.21362305 381.04272461 C-129.79924515 380.44655838 -130.38486725 379.85039215 -130.98823547 379.23616028 C-134.59329156 375.5383454 -138.02018726 371.72029995 -141.4027853 367.81845951 C-143.34751302 365.60434978 -145.37965064 363.50015655 -147.46655273 361.41992188 C-148.2668541 360.61969604 -149.06715546 359.81947021 -149.89170837 358.99499512 C-150.73053055 358.16133423 -151.56935272 357.32767334 -152.43359375 356.46875 C-153.31153091 355.59222778 -154.18946808 354.71570557 -155.0940094 353.81262207 C-157.87281496 351.03937204 -160.65509397 348.26963718 -163.4375 345.5 C-165.33319865 343.60989195 -167.22809783 341.71898482 -169.12304688 339.828125 C-173.74605189 335.21608996 -178.37190657 330.60692859 -183 326 C-178.91603473 324.80366066 -176.01191346 325.36391909 -171.81640625 326.1875 C-171.10052841 326.32541962 -170.38465057 326.46333923 -169.64707947 326.60543823 C-167.28395982 327.06248359 -164.92332946 327.53128153 -162.5625 328 C-160.91814107 328.32005979 -159.27360689 328.63922035 -157.62890625 328.95751953 C-154.18437826 329.62481808 -150.74065245 330.29606646 -147.29736328 330.96972656 C-139.51844707 332.48757263 -131.7289826 333.94957569 -123.94015503 335.41552734 C-120.05346771 336.14737697 -116.16730172 336.8819715 -112.28125 337.6171875 C-110.34862305 337.98239502 -110.34862305 337.98239502 -108.37695312 338.35498047 C-106.33985996 338.74407822 -104.30484431 339.14464768 -102.27441406 339.56713867 C-94.60935772 341.02593482 -85.38981405 341.63355631 -78.6875 337.25 C-76.55770491 335.59302779 -75.14321534 334.22914454 -73.7109375 331.9375 C-71.25112931 329.15196378 -68.43735316 328.5512605 -64.9375 327.75 C-63.84646973 327.49742432 -63.84646973 327.49742432 -62.73339844 327.23974609 C-51.64249241 324.99195877 -40.2457343 325.51355305 -29 326 C-28.22914063 326.02803711 -27.45828125 326.05607422 -26.6640625 326.08496094 C-17.55049159 326.51492999 -17.55049159 326.51492999 -14.1484375 329.7734375 C-12.625 331.875 -12.625 331.875 -11.29296875 334.0234375 C-9.16825051 337.2714962 -6.64257643 338.93679111 -3 340 C9.087765 341.4478926 21.33114061 338.20829951 33.125 335.9375 C35.30365855 335.52582138 37.48245236 335.11485803 39.66137695 334.70458984 C45.09071414 333.67850919 50.51686429 332.6365693 55.94207764 331.58892822 C58.82790132 331.03314465 61.71469935 330.482843 64.60205078 329.93505859 C68.71931062 329.15350508 72.83455987 328.3623152 76.94793701 327.56057739 C78.42716031 327.27288009 79.90685117 326.98757532 81.38702393 326.70480347 C83.42003894 326.31469162 85.45042213 325.91304961 87.48046875 325.5078125 C88.60348389 325.28754395 89.72649902 325.06727539 90.88354492 324.84033203 C95.61632843 323.56416745 99.0701386 322.02774155 102.375 318.375 C104.52245035 313.91491081 105.22143691 310.84939536 104 306 C102.4987186 303.27007557 100.87166439 300.6801698 99.14111328 298.09082031 C94.58479229 291.1422794 92.79744792 283.57485261 91 275.5625 C89.8847829 271.58953907 88.45127577 269.2683677 86 266 C82.55031331 267.53319408 79.93051669 269.64129144 77 272 C70.33539157 276.38888848 63.87974447 276.86260425 56 276 C47.26409526 273.09606477 41.72131421 267.81458904 37 260 C33.91129081 253.45593629 33.68540758 245.92806499 35.98046875 239.0703125 C37.68735599 235.53049097 39.21608125 232.71656192 42.13671875 230.046875 C45.19927281 226.68255985 44.5932451 223.70113252 44.44140625 219.3125 C41.04274333 179.9296651 24.31548139 133.76624753 -1.23046875 103.34375 C-3 101 -3 101 -2.8125 99.125 C-2.544375 98.42375 -2.27625 97.7225 -2 97 C-0.99331283 93.62057268 -0.99331283 93.62057268 -1 90 C-4.29908872 84.78531137 -8.98921817 81.50630391 -14 78 C-13.01 76.515 -13.01 76.515 -12 75 C-11.34 75 -10.68 75 -10 75 C-9.71125 74.4225 -9.4225 73.845 -9.125 73.25 C-8 71 -8 71 -6.953125 69.3203125 C-5.6090435 66.04824524 -5.66019491 63.15152958 -5.625 59.625 C-5.59664062 58.33851563 -5.56828125 57.05203125 -5.5390625 55.7265625 C-6.06616031 51.46511071 -7.46395499 49.39809984 -10 46 C-10 45.34 -10 44.68 -10 44 C-14.37630656 42.54123115 -18.44520796 42.11591769 -23 43 C-26.59582269 45.68248373 -28.59331203 48.77993609 -30 53 C-30.22451458 55.22574335 -30.40782878 57.45581519 -30.5625 59.6875 C-30.64628906 60.86699219 -30.73007812 62.04648438 -30.81640625 63.26171875 C-30.87699219 64.16535156 -30.93757812 65.06898438 -31 66 C-33.76276177 65.47731534 -36.3260876 64.89130413 -39 64 C-41.11746199 63.80438422 -41.11746199 63.80438422 -43.375 63.8125 C-44.50035156 63.79123047 -44.50035156 63.79123047 -45.6484375 63.76953125 C-48.37773303 64.03702035 -50.50704369 64.88565734 -53 66 C-52.95359375 65.2265625 -52.9071875 64.453125 -52.859375 63.65625 C-52.5793706 55.57612292 -53.43404356 50.22631874 -58.6875 44 C-62.44093711 42.37689206 -65.99389954 42.24034589 -70 43 C-74.00624059 45.96113435 -76.32471738 49.32684323 -78 54 C-78.99048647 61.07835453 -77.74551754 66.92101306 -74 73 C-72.43412468 74.89856838 -70.87409504 76.38619594 -69 78 C-69.81404297 78.79664063 -69.81404297 78.79664063 -70.64453125 79.609375 C-71.35996094 80.31578125 -72.07539063 81.0221875 -72.8125 81.75 C-73.52019531 82.44609375 -74.22789062 83.1421875 -74.95703125 83.859375 C-78.76325935 87.54112187 -78.76325935 87.54112187 -80 92.375 C-78.20887282 97.07670885 -75.13861193 100.24092538 -71 103 C-72.4415515 106.19992751 -74.32651649 108.99352532 -76.32470703 111.87036133 C-81.65292682 119.57257015 -86.07921983 127.45649394 -90.03662109 135.9375 C-90.67459214 137.30333361 -91.32066442 138.6654148 -91.97509766 140.0234375 C-103.63855901 164.24353428 -112.38663338 191.16273505 -115 218 C-115.14179688 218.77472656 -115.28359375 219.54945313 -115.4296875 220.34765625 C-115.86196304 223.64211981 -115.23195471 225.67198875 -113.33984375 228.34765625 C-110.99700272 231.02105686 -108.53591348 233.50950587 -106 236 C-104.82824219 237.24136719 -104.82824219 237.24136719 -103.6328125 238.5078125 C-93.68178249 248.9156111 -82.74643535 256.496334 -70.140625 263.28515625 C-67 265 -67 265 -66 266 C-65.51706619 270.18542633 -65.44445361 272.25348454 -68 275.6875 C-73.70206475 280.08284158 -79.71790114 283.5645983 -87.15234375 283.2578125 C-93.56372635 280.42589865 -96.34089142 272.57122864 -99.51269531 266.66552734 C-102.03151033 262.15134113 -104.89619916 257.86976915 -107.75 253.5625 C-113.89810467 244.21773887 -113.89810467 244.21773887 -116.203125 240.36328125 C-116.79609375 239.37714844 -117.3890625 238.39101563 -118 237.375 C-118.474375 236.55773437 -118.94875 235.74046875 -119.4375 234.8984375 C-122.04783312 231.72688276 -125.03855664 231.12018042 -129 230.625 C-132.86098975 231.10762372 -134.29917324 232.22617792 -137 235 C-138.80979141 238.11662908 -138.80979141 238.11662908 -140 241 C-140.33 241 -140.66 241 -141 241 C-145.97469955 219.45381764 -141.97001063 193.89438113 -133 174 C-132.49726563 172.87335938 -131.99453125 171.74671875 -131.4765625 170.5859375 C-126.27843791 159.57957979 -119.64883312 149.80503367 -111.375 140.875 C-95.11602981 123.3233555 -89.02791484 102.76365229 -89.66015625 79.29296875 C-89.88591508 74.67111498 -90.52479355 70.26782811 -91.5 65.75 C-95.28952608 48.15577178 -93.17227961 32.58660726 -84 17 C-75.21091262 3.59025147 -62.03107893 -4.78155977 -46.6875 -8.8125 C-30.32506312 -12.1778239 -14.05641062 -9.17822184 0 0 Z " fill="#00B9FE" transform="translate(293,70)"/>
<path d="M0 0 C4.17074687 2.22439833 6.31219979 5.43736422 8.28515625 9.62890625 C9.60873268 14.0191297 9.29998368 18.4669133 9 23 C9.57234375 22.67644531 10.1446875 22.35289062 10.734375 22.01953125 C15.87606228 19.70577197 21.41401483 20.57046115 26.5625 22.5 C28.2640625 23.2425 28.2640625 23.2425 30 24 C29.95359375 23.14277344 29.9071875 22.28554687 29.859375 21.40234375 C29.63447882 14.27795407 29.61527759 9.7244987 34 4 C34.53625 3.195625 35.0725 2.39125 35.625 1.5625 C39.51288049 -0.99531611 43.50429132 -0.84659449 48 0 C51.68480832 2.7440062 53.94303546 5.92044916 56 10 C57.03123597 17.67411433 57.18447099 25.08737201 52.38671875 31.484375 C50.96658001 33.03652664 49.50730159 34.53248056 48 36 C48.68707031 36.53109375 49.37414062 37.0621875 50.08203125 37.609375 C51.43361328 38.66898438 51.43361328 38.66898438 52.8125 39.75 C53.70582031 40.44609375 54.59914063 41.1421875 55.51953125 41.859375 C57.77815734 43.80855153 59.48014832 45.44132714 61 48 C60.77263559 51.18310177 60.40168128 53.9668095 59.2421875 56.94921875 C58.76429945 59.11672707 58.76429945 59.11672707 60.3359375 61.05078125 C61.00882813 61.79714844 61.68171875 62.54351562 62.375 63.3125 C83.9879216 89.18817776 95.57652799 124.62747582 103 157 C103.17789063 157.77230957 103.35578125 158.54461914 103.5390625 159.34033203 C108.54611393 181.66840365 108.54611393 181.66840365 104.7578125 188.11328125 C103.72342589 189.27374981 102.64877735 190.39971331 101.53515625 191.484375 C97.22766366 195.73706489 96.75740815 200.53436444 96.5 206.3125 C96.69173868 214.24682926 99.38744232 219.64099727 104.1875 225.8125 C111.18301329 231.25345478 117.28868289 233.7719045 126.23828125 233.359375 C133.48662 232.41616826 140.11857378 228.42380691 145 223 C148.84973555 224.237415 150.17330495 226.56499369 152.06787109 230.00512695 C153.53642386 233.1480145 154.23732405 236.4367685 154.9375 239.8125 C156.75174299 247.74066871 159.36696182 254.51300349 164.3125 261.0625 C166.63425645 265.10407604 166.8168741 268.44184254 166 273 C163.63391205 277.56316962 161.03766608 281.03257315 156.01702881 282.63153076 C153.45623723 283.2784753 150.88829463 283.84954581 148.3046875 284.3984375 C147.33602753 284.61100189 146.36736755 284.82356628 145.36935425 285.04257202 C134.00410462 287.49720064 122.567829 289.56988913 111.125 291.625 C107.95114644 292.19994532 104.77754128 292.77624827 101.60394287 293.3526001 C99.56138426 293.72300435 97.5186227 294.09229149 95.47564697 294.46038818 C91.03914272 295.26047688 86.60519537 296.06890247 82.17871094 296.92285156 C81.45231415 297.06250336 80.72591736 297.20215515 79.97750854 297.34603882 C78.09611989 297.70999134 76.21573271 298.07911082 74.33544922 298.44873047 C67.16619627 299.63363555 59.93205306 300.60397941 53.4375 296.8125 C49.81382375 294.12149991 47.02843937 291.05687874 45 287 C30.44354454 282.4563665 10.89191563 283.36284947 -3.8125 286.625 C-4.48055664 286.76502441 -5.14861328 286.90504883 -5.83691406 287.04931641 C-11.03248816 288.40993281 -12.92545809 290.85745931 -16 295 C-21.9945799 300.0620897 -28.74972477 299.91443643 -36.28417969 299.31787109 C-45.12689297 298.28288254 -53.83206743 296.2096678 -62.53085327 294.35203552 C-71.13809489 292.5255108 -79.78863237 290.92775089 -88.4375 289.3125 C-89.97423761 289.02484583 -91.5109409 288.73700828 -93.04760742 288.44897461 C-93.78791702 288.31022415 -94.52822662 288.17147369 -95.29096985 288.02851868 C-97.46144925 287.61980501 -99.63089337 287.20590554 -101.80029297 286.79150391 C-104.60259397 286.25730284 -107.40811692 285.75261222 -110.21923828 285.26708984 C-111.5537448 285.02590341 -112.88821897 284.78453796 -114.22265625 284.54296875 C-115.38676025 284.34082764 -116.55086426 284.13868652 -117.75024414 283.93041992 C-122.68133824 282.5186252 -126.00036725 280.13116337 -129.375 276.3125 C-131.5471971 271.88455976 -132.21436647 268.82872348 -131 264 C-129.1735206 260.55795107 -127.11428727 257.31599089 -124.97265625 254.06640625 C-121.49228754 248.65632816 -120.1047778 243.87861288 -119.1875 237.5625 C-117.99135102 230.44491927 -114.75567629 225.37116332 -109.3125 220.6875 C-106.42546881 219.21674826 -103.81929558 218.28811294 -100.75 217.3125 C-90.73031451 213.8001646 -84.81590097 206.41403276 -79.53125 197.52734375 C-77.31839903 193.87501064 -74.90128488 189.95064244 -71 188 C-69.01171875 187.9453125 -69.01171875 187.9453125 -66.6875 188.125 C-65.54861328 188.19074219 -65.54861328 188.19074219 -64.38671875 188.2578125 C-58.12630587 190.20458574 -54.91360188 196.96339507 -51.6875 202.25 C-50.64571965 203.93172634 -49.60267956 205.61267276 -48.55859375 207.29296875 C-47.99640137 208.19966309 -47.43420898 209.10635742 -46.85498047 210.04052734 C-44.81753364 213.29111046 -42.74397882 216.51734976 -40.66015625 219.73828125 C-40.29399704 220.3052774 -39.92783783 220.87227356 -39.55058289 221.45645142 C-37.73157796 224.27293146 -35.90892663 227.08687391 -34.08081055 229.89746094 C-33.41992432 230.92258789 -32.75903809 231.94771484 -32.078125 233.00390625 C-31.18722168 234.37784546 -31.18722168 234.37784546 -30.27832031 235.77954102 C-29 238 -29 238 -29 240 C-21.09328663 239.83465048 -14.63407651 238.49195787 -8 234 C-5.5705484 230.3558226 -5.83820425 228.28758728 -6 224 C-7.03898437 223.443125 -8.07796875 222.88625 -9.1484375 222.3125 C-17.38698469 217.83206021 -24.94168551 213.23786084 -32 207 C-32.80566406 206.30261719 -33.61132812 205.60523438 -34.44140625 204.88671875 C-50.51927939 190.72108091 -50.51927939 190.72108091 -55 184 C-56.25965901 150.78699088 -41.4261106 114.744911 -26 86 C-25.66468262 85.37335449 -25.32936523 84.74670898 -24.98388672 84.10107422 C-21.25340542 77.19601947 -17.32016365 70.69269433 -12.25 64.671875 C-10.80039943 63.08095129 -10.80039943 63.08095129 -11 61 C-12.49266722 59.52563821 -12.49266722 59.52563821 -14.375 58.0625 C-16.83901524 56.08013383 -18.20466437 54.69300345 -20 52 C-19.81506693 47.33814545 -17.63739179 45.09385439 -14.5 41.8125 C-11.38154906 38.6654128 -11.38154906 38.6654128 -9 35 C-9.7425 34.525625 -10.485 34.05125 -11.25 33.5625 C-16.1385834 29.00722911 -18.20282401 23.58809362 -18.5 16.9375 C-18.21496585 10.61760497 -15.92600574 6.20114942 -11.8125 1.5 C-7.81941377 -0.62964599 -4.4306937 -0.77476611 0 0 Z " fill="#BFC1C0" transform="translate(232,112)"/>
<path d="M0 0 C12.87773347 9.77126267 23.53732072 23.62400184 26 40 C26.1019469 43.196965 26.04456928 46.3882594 25.9921875 49.5859375 C25.97464703 51.50650491 25.95774113 53.42707821 25.94140625 55.34765625 C25.91069945 58.34668677 25.8754622 61.34541427 25.82861328 64.34423828 C25.60953523 79.17016074 25.76351505 93.52679235 32.1875 107.25 C32.49373291 107.91781494 32.79996582 108.58562988 33.11547852 109.27368164 C37.78281981 119.10196842 44.47350264 126.58136779 51.9375 134.375 C66.79193782 149.91091221 76.1225723 167.36221409 82 188 C82.3196875 189.06089844 82.639375 190.12179687 82.96875 191.21484375 C85.55629573 201.48117101 85.16429447 211.80041208 84.80200195 222.30297852 C84.64534394 229.10246268 84.89031661 234.05614856 88.07641602 240.10839844 C91.00692705 246.11040729 89.57935591 254.27617484 87.5 260.375 C84.43877951 267.0748242 78.50856704 271.74571648 72 275 C64.88022934 277.17634911 57.28734796 277.02873163 50.5625 273.8125 C43.02497461 269.51912554 37.79305799 263.24787636 35 255 C33.91904767 246.31824604 34.94091665 239.22916384 40 232 C40.70511719 231.35546875 41.41023437 230.7109375 42.13671875 230.046875 C45.19927281 226.68255985 44.5932451 223.70113252 44.44140625 219.3125 C41.04274333 179.9296651 24.31548139 133.76624753 -1.23046875 103.34375 C-3 101 -3 101 -2.8125 99.125 C-2.544375 98.42375 -2.27625 97.7225 -2 97 C-0.99331283 93.62057268 -0.99331283 93.62057268 -1 90 C-4.29908872 84.78531137 -8.98921817 81.50630391 -14 78 C-13.01 76.515 -13.01 76.515 -12 75 C-11.34 75 -10.68 75 -10 75 C-9.71125 74.4225 -9.4225 73.845 -9.125 73.25 C-8 71 -8 71 -6.953125 69.3203125 C-5.6090435 66.04824524 -5.66019491 63.15152958 -5.625 59.625 C-5.59664062 58.33851563 -5.56828125 57.05203125 -5.5390625 55.7265625 C-6.06616031 51.46511071 -7.46395499 49.39809984 -10 46 C-10 45.34 -10 44.68 -10 44 C-14.37630656 42.54123115 -18.44520796 42.11591769 -23 43 C-26.59582269 45.68248373 -28.59331203 48.77993609 -30 53 C-30.22451458 55.22574335 -30.40782878 57.45581519 -30.5625 59.6875 C-30.68818359 61.45673828 -30.68818359 61.45673828 -30.81640625 63.26171875 C-30.87699219 64.16535156 -30.93757813 65.06898438 -31 66 C-33.76276177 65.47731534 -36.3260876 64.89130413 -39 64 C-41.11746199 63.80438422 -41.11746199 63.80438422 -43.375 63.8125 C-44.12523437 63.79832031 -44.87546875 63.78414063 -45.6484375 63.76953125 C-48.37773303 64.03702035 -50.50704369 64.88565734 -53 66 C-52.95359375 65.2265625 -52.9071875 64.453125 -52.859375 63.65625 C-52.5793706 55.57612292 -53.43404356 50.22631874 -58.6875 44 C-62.44093711 42.37689206 -65.99389954 42.24034589 -70 43 C-74.00624059 45.96113435 -76.32471738 49.32684323 -78 54 C-78.99048647 61.07835453 -77.74551754 66.92101306 -74 73 C-72.43412468 74.89856838 -70.87409504 76.38619594 -69 78 C-69.81404297 78.79664063 -69.81404297 78.79664063 -70.64453125 79.609375 C-71.35996094 80.31578125 -72.07539063 81.0221875 -72.8125 81.75 C-73.52019531 82.44609375 -74.22789062 83.1421875 -74.95703125 83.859375 C-78.76325935 87.54112187 -78.76325935 87.54112187 -80 92.375 C-78.20887282 97.07670885 -75.13861193 100.24092538 -71 103 C-72.4415515 106.19992751 -74.32651649 108.99352532 -76.32470703 111.87036133 C-81.65292682 119.57257015 -86.07921983 127.45649394 -90.03662109 135.9375 C-90.67459214 137.30333361 -91.32066442 138.6654148 -91.97509766 140.0234375 C-103.63855901 164.24353428 -112.38663338 191.16273505 -115 218 C-115.14179688 218.77472656 -115.28359375 219.54945313 -115.4296875 220.34765625 C-115.86196304 223.64211981 -115.23195471 225.67198875 -113.33984375 228.34765625 C-110.99700272 231.02105686 -108.53591348 233.50950587 -106 236 C-104.82824219 237.24136719 -104.82824219 237.24136719 -103.6328125 238.5078125 C-93.68178249 248.9156111 -82.74643535 256.496334 -70.140625 263.28515625 C-67 265 -67 265 -66 266 C-65.51706619 270.18542633 -65.44445361 272.25348454 -68 275.6875 C-73.70206475 280.08284158 -79.71790114 283.5645983 -87.15234375 283.2578125 C-93.56372635 280.42589865 -96.34089142 272.57122864 -99.51269531 266.66552734 C-102.03151033 262.15134113 -104.89619916 257.86976915 -107.75 253.5625 C-113.89810467 244.21773887 -113.89810467 244.21773887 -116.203125 240.36328125 C-116.79609375 239.37714844 -117.3890625 238.39101563 -118 237.375 C-118.474375 236.55773437 -118.94875 235.74046875 -119.4375 234.8984375 C-122.04783312 231.72688276 -125.03855664 231.12018042 -129 230.625 C-132.86098975 231.10762372 -134.29917324 232.22617792 -137 235 C-138.80979141 238.11662908 -138.80979141 238.11662908 -140 241 C-140.33 241 -140.66 241 -141 241 C-145.97469955 219.45381764 -141.97001063 193.89438113 -133 174 C-132.24589844 172.31003906 -132.24589844 172.31003906 -131.4765625 170.5859375 C-126.27843791 159.57957979 -119.64883312 149.80503367 -111.375 140.875 C-95.11602981 123.3233555 -89.02791484 102.76365229 -89.66015625 79.29296875 C-89.88591508 74.67111498 -90.52479355 70.26782811 -91.5 65.75 C-95.28952608 48.15577178 -93.17227961 32.58660726 -84 17 C-75.21091262 3.59025147 -62.03107893 -4.78155977 -46.6875 -8.8125 C-30.27113647 -12.18891519 -14.12451179 -9.12970387 0 0 Z " fill="#000101" transform="translate(293,70)"/>
<path d="M0 0 C0.75925781 0.04382813 1.51851563 0.08765625 2.30078125 0.1328125 C8.56119413 2.07958574 11.77389812 8.83839507 15 14.125 C16.04178035 15.80672634 17.08482044 17.48767276 18.12890625 19.16796875 C18.69109863 20.07466309 19.25329102 20.98135742 19.83251953 21.91552734 C21.86996636 25.16611046 23.94352118 28.39234976 26.02734375 31.61328125 C26.39350296 32.1802774 26.75966217 32.74727356 27.13691711 33.33145142 C28.95592204 36.14793146 30.77857337 38.96187391 32.60668945 41.77246094 C33.26757568 42.79758789 33.92846191 43.82271484 34.609375 44.87890625 C35.20331055 45.79486572 35.79724609 46.7108252 36.40917969 47.65454102 C37.6875 49.875 37.6875 49.875 37.6875 51.875 C39.6675 51.875 41.6475 51.875 43.6875 51.875 C42.3675 52.205 41.0475 52.535 39.6875 52.875 C46.42454662 65.38585643 51.58623944 74.44403065 65.6875 78.875 C66.92242187 79.2978125 68.15734375 79.720625 69.4296875 80.15625 C83.01695466 84.40033167 97.7133209 83.73822388 111.6875 81.875 C111.91566406 81.22015625 112.14382813 80.5653125 112.37890625 79.890625 C114.11031646 75.90062893 116.336584 72.31710449 118.625 68.625 C119.11589111 67.82779541 119.60678223 67.03059082 120.11254883 66.20922852 C124.18449858 59.62475761 128.3715366 53.11898422 132.59765625 46.6328125 C135.65801421 41.93192366 138.68322791 37.2088664 141.70507812 32.4831543 C143.10193169 30.29870964 144.50035147 28.11526567 145.90039062 25.93286133 C148.8089084 21.39650957 151.71119628 16.85911153 154.53515625 12.26953125 C155.14302979 11.29149536 155.14302979 11.29149536 155.76318359 10.29370117 C156.78120932 8.65131316 157.78768652 7.00178139 158.79296875 5.3515625 C160.88635034 2.61505956 162.52874015 1.24068466 165.6875 -0.125 C168 0.1875 168 0.1875 169.6875 0.875 C169.16349609 1.68904297 169.16349609 1.68904297 168.62890625 2.51953125 C168.17386719 3.23496094 167.71882812 3.95039063 167.25 4.6875 C166.57130859 5.74904297 166.57130859 5.74904297 165.87890625 6.83203125 C162.64612861 12.37544995 163.05889699 18.66666245 163.6875 24.875 C166.3151484 32.9760073 170.89716258 38.4590312 178.25 42.6875 C184.54649697 45.66658887 191.04129493 46.08180651 197.79296875 44.328125 C202.97810047 42.26780776 207.94769792 39.03033565 211.6875 34.875 C215.53723555 36.112415 216.86080495 38.43999369 218.75537109 41.88012695 C220.22392386 45.0230145 220.92482405 48.3117685 221.625 51.6875 C223.43924299 59.61566871 226.05446182 66.38800349 231 72.9375 C233.32175645 76.97907604 233.5043741 80.31684254 232.6875 84.875 C230.32141205 89.43816962 227.72516608 92.90757315 222.70452881 94.50653076 C220.14373723 95.1534753 217.57579463 95.72454581 214.9921875 96.2734375 C214.02352753 96.48600189 213.05486755 96.69856628 212.05685425 96.91757202 C200.69160462 99.37220064 189.255329 101.44488913 177.8125 103.5 C174.63864644 104.07494532 171.46504128 104.65124827 168.29144287 105.2276001 C166.24888426 105.59800435 164.2061227 105.96729149 162.16314697 106.33538818 C157.72664272 107.13547688 153.29269537 107.94390247 148.86621094 108.79785156 C148.13981415 108.93750336 147.41341736 109.07715515 146.66500854 109.22103882 C144.78361989 109.58499134 142.90323271 109.95411082 141.02294922 110.32373047 C133.85369627 111.50863555 126.61955306 112.47897941 120.125 108.6875 C116.50132375 105.99649991 113.71593937 102.93187874 111.6875 98.875 C97.13104454 94.3313665 77.57941563 95.23784947 62.875 98.5 C62.20694336 98.64002441 61.53888672 98.78004883 60.85058594 98.92431641 C55.65501184 100.28493281 53.76204191 102.73245931 50.6875 106.875 C44.6929201 111.9370897 37.93777523 111.78943643 30.40332031 111.19287109 C21.56060703 110.15788254 12.85543257 108.0846678 4.15664673 106.22703552 C-4.45059489 104.4005108 -13.10113237 102.80275089 -21.75 101.1875 C-23.28673761 100.89984583 -24.8234409 100.61200828 -26.36010742 100.32397461 C-27.10041702 100.18522415 -27.84072662 100.04647369 -28.60346985 99.90351868 C-30.77394925 99.49480501 -32.94339337 99.08090554 -35.11279297 98.66650391 C-37.91509397 98.13230284 -40.72061692 97.62761222 -43.53173828 97.14208984 C-44.8662448 96.90090341 -46.20071897 96.65953796 -47.53515625 96.41796875 C-48.69926025 96.21582764 -49.86336426 96.01368652 -51.06274414 95.80541992 C-55.99383824 94.3936252 -59.31286725 92.00616337 -62.6875 88.1875 C-64.8596971 83.75955976 -65.52686647 80.70372348 -64.3125 75.875 C-62.4860206 72.43295107 -60.42678727 69.19099089 -58.28515625 65.94140625 C-54.80478754 60.53132816 -53.4172778 55.75361288 -52.5 49.4375 C-51.30385102 42.31991927 -48.06817629 37.24616332 -42.625 32.5625 C-39.73796881 31.09174826 -37.13179558 30.16311294 -34.0625 29.1875 C-24.04281451 25.6751646 -18.12840097 18.28903276 -12.84375 9.40234375 C-9.55158411 3.96859036 -6.80780835 -0.52631796 0 0 Z " fill="#FC9B0F" transform="translate(165.3125,300.125)"/>
<path d="M0 0 C0.51046875 0.29132813 1.0209375 0.58265625 1.546875 0.8828125 C5.96879591 3.37602322 10.42895243 5.79198703 14.9375 8.125 C15.85402344 8.60195312 16.77054688 9.07890625 17.71484375 9.5703125 C21.99513914 11.43308077 26.5288043 12.65864129 31 14 C31 78.35 31 142.7 31 209 C20.1112623 209 13.600836 207.82954694 4 204 C3.14148438 203.69707031 2.28296875 203.39414062 1.3984375 203.08203125 C-7.14991144 199.3817742 -12.70387972 189.30410764 -16.28515625 181.03125 C-16.52105469 180.3609375 -16.75695312 179.690625 -17 179 C-16.29875 178.82984375 -15.5975 178.6596875 -14.875 178.484375 C-4.05451101 175.97909071 -4.05451101 175.97909071 4 169 C4.07905064 166.66800612 4.08798769 164.33167378 4 162 C2.96101563 161.443125 1.92203125 160.88625 0.8515625 160.3125 C-7.38698469 155.83206021 -14.94168551 151.23786084 -22 145 C-22.80566406 144.30261719 -23.61132812 143.60523438 -24.44140625 142.88671875 C-40.51927939 128.72108091 -40.51927939 128.72108091 -45 122 C-46.25965901 88.78699088 -31.4261106 52.744911 -16 24 C-15.66468262 23.37335449 -15.32936523 22.74670898 -14.98388672 22.10107422 C-10.75777027 14.27860759 -6.34054401 6.34054401 0 0 Z " fill="#FEFEFE" transform="translate(222,174)"/>
<path d="M0 0 C0.556875 0.226875 1.11375 0.45375 1.6875 0.6875 C1.16349609 1.50154297 1.16349609 1.50154297 0.62890625 2.33203125 C0.17386719 3.04746094 -0.28117187 3.76289063 -0.75 4.5 C-1.20246094 5.20769531 -1.65492188 5.91539062 -2.12109375 6.64453125 C-5.35387139 12.18794995 -4.94110301 18.47916245 -4.3125 24.6875 C-1.6848516 32.7885073 2.89716258 38.2715312 10.25 42.5 C16.54649697 45.47908887 23.04129493 45.89430651 29.79296875 44.140625 C34.97810047 42.08030776 39.94769792 38.84283565 43.6875 34.6875 C47.53723555 35.924915 48.86080495 38.25249369 50.75537109 41.69262695 C52.22392386 44.8355145 52.92482405 48.1242685 53.625 51.5 C55.43924299 59.42816871 58.05446182 66.20050349 63 72.75 C65.32175645 76.79157604 65.5043741 80.12934254 64.6875 84.6875 C62.32141205 89.25066962 59.72516608 92.72007315 54.70452881 94.31903076 C52.14373723 94.9659753 49.57579463 95.53704581 46.9921875 96.0859375 C46.02352753 96.29850189 45.05486755 96.51106628 44.05685425 96.73007202 C32.69160462 99.18470064 21.255329 101.25738913 9.8125 103.3125 C6.63864644 103.88744532 3.46504128 104.46374827 0.29144287 105.0401001 C-1.75111574 105.41050435 -3.7938773 105.77979149 -5.83685303 106.14788818 C-10.27335728 106.94797688 -14.70730463 107.75640247 -19.13378906 108.61035156 C-19.86018585 108.75000336 -20.58658264 108.88965515 -21.33499146 109.03353882 C-23.21638011 109.39749134 -25.09676729 109.76661082 -26.97705078 110.13623047 C-34.14630373 111.32113555 -41.38044694 112.29147941 -47.875 108.5 C-51.49867625 105.80899991 -54.28406063 102.74437874 -56.3125 98.6875 C-71.35092669 93.99342462 -91.88155553 94.90782227 -106.87109375 99.12890625 C-109.3125 99.6875 -109.3125 99.6875 -112.3125 98.6875 C-111.8175 97.6975 -111.8175 97.6975 -111.3125 96.6875 C-111.13646853 94.27500308 -111.04505032 91.85599105 -111 89.4375 C-110.96261719 88.13296875 -110.92523438 86.8284375 -110.88671875 85.484375 C-111.37217624 81.15534124 -112.73359175 79.12604433 -115.3125 75.6875 C-115.3125 75.0275 -115.3125 74.3675 -115.3125 73.6875 C-112.48196969 74.60550983 -109.67001541 75.55220834 -106.88671875 76.60546875 C-104.04313627 77.67952813 -101.18614884 78.69671751 -98.3125 79.6875 C-97.42949219 79.99300781 -96.54648438 80.29851562 -95.63671875 80.61328125 C-83.17354671 84.33284179 -69.08514674 83.39051957 -56.3125 81.6875 C-56.08433594 81.03265625 -55.85617187 80.3778125 -55.62109375 79.703125 C-53.88968354 75.71312893 -51.663416 72.12960449 -49.375 68.4375 C-48.88410889 67.64029541 -48.39321777 66.84309082 -47.88745117 66.02172852 C-43.81550142 59.43725761 -39.6284634 52.93148422 -35.40234375 46.4453125 C-32.34198579 41.74442366 -29.31677209 37.0213664 -26.29492188 32.2956543 C-24.89806831 30.11120964 -23.49964853 27.92776567 -22.09960938 25.74536133 C-19.1910916 21.20900957 -16.28880372 16.67161153 -13.46484375 12.08203125 C-13.05959473 11.43000732 -12.6543457 10.7779834 -12.23681641 10.10620117 C-11.21879068 8.46381316 -10.21231348 6.81428139 -9.20703125 5.1640625 C-6.68952335 1.87313465 -4.33769367 -0.58617482 0 0 Z " fill="#DB7F10" transform="translate(333.3125,300.3125)"/>
<path d="M0 0 C0 23.76 0 47.52 0 72 C-4.95 72.99 -4.95 72.99 -10 74 C-11.485 74.495 -11.485 74.495 -13 75 C-12.95359375 74.2265625 -12.9071875 73.453125 -12.859375 72.65625 C-12.5793706 64.57612292 -13.43404356 59.22631874 -18.6875 53 C-22.44093711 51.37689206 -25.99389954 51.24034589 -30 52 C-34.00624059 54.96113435 -36.32471738 58.32684323 -38 63 C-38.99048647 70.07835453 -37.74551754 75.92101306 -34 82 C-32.43412468 83.89856838 -30.87409504 85.38619594 -29 87 C-29.81404297 87.79664063 -29.81404297 87.79664063 -30.64453125 88.609375 C-31.35996094 89.31578125 -32.07539063 90.0221875 -32.8125 90.75 C-33.52019531 91.44609375 -34.22789062 92.1421875 -34.95703125 92.859375 C-38.76325935 96.54112187 -38.76325935 96.54112187 -40 101.375 C-38.20887282 106.07670885 -35.13861193 109.24092538 -31 112 C-32.4415515 115.19992751 -34.32651649 117.99352532 -36.32470703 120.87036133 C-41.65292682 128.57257015 -46.07921983 136.45649394 -50.03662109 144.9375 C-50.67459214 146.30333361 -51.32066442 147.6654148 -51.97509766 149.0234375 C-63.63855901 173.24353428 -72.38663338 200.16273505 -75 227 C-75.14179688 227.77472656 -75.28359375 228.54945313 -75.4296875 229.34765625 C-75.86196304 232.64211981 -75.23195471 234.67198875 -73.33984375 237.34765625 C-70.99700272 240.02105686 -68.53591348 242.50950587 -66 245 C-64.82824219 246.24136719 -64.82824219 246.24136719 -63.6328125 247.5078125 C-53.68178249 257.9156111 -42.74643535 265.496334 -30.140625 272.28515625 C-27 274 -27 274 -26 275 C-25.51706619 279.18542633 -25.44445361 281.25348454 -28 284.6875 C-33.70206475 289.08284158 -39.71790114 292.5645983 -47.15234375 292.2578125 C-53.56372635 289.42589865 -56.34089142 281.57122864 -59.51269531 275.66552734 C-62.03151033 271.15134113 -64.89619916 266.86976915 -67.75 262.5625 C-73.89810467 253.21773887 -73.89810467 253.21773887 -76.203125 249.36328125 C-76.79609375 248.37714844 -77.3890625 247.39101563 -78 246.375 C-78.474375 245.55773437 -78.94875 244.74046875 -79.4375 243.8984375 C-82.04783312 240.72688276 -85.03855664 240.12018042 -89 239.625 C-92.86098975 240.10762372 -94.29917324 241.22617792 -97 244 C-98.80979141 247.11662908 -98.80979141 247.11662908 -100 250 C-100.33 250 -100.66 250 -101 250 C-105.97469955 228.45381764 -101.97001063 202.89438113 -93 183 C-92.24589844 181.31003906 -92.24589844 181.31003906 -91.4765625 179.5859375 C-86.27843791 168.57957979 -79.64883312 158.80503367 -71.375 149.875 C-55.11602981 132.3233555 -49.02791484 111.76365229 -49.66015625 88.29296875 C-49.88591508 83.67111498 -50.52479355 79.26782811 -51.5 74.75 C-55.28952608 57.15577178 -53.17227961 41.58660726 -44 26 C-35.72678758 13.37733585 -23.148059 4.658224 -8.625 0.6875 C-5 0 -5 0 0 0 Z " fill="#343434" transform="translate(253,61)"/>
<path d="M0 0 C4.17074687 2.22439833 6.31219979 5.43736422 8.28515625 9.62890625 C9.60873268 14.0191297 9.29998368 18.4669133 9 23 C9.57234375 22.67644531 10.1446875 22.35289062 10.734375 22.01953125 C15.87606228 19.70577197 21.41401483 20.57046115 26.5625 22.5 C27.696875 22.995 28.83125 23.49 30 24 C29.95359375 23.14277344 29.9071875 22.28554687 29.859375 21.40234375 C29.63447882 14.27795407 29.61527759 9.7244987 34 4 C34.53625 3.195625 35.0725 2.39125 35.625 1.5625 C39.51288049 -0.99531611 43.50429132 -0.84659449 48 0 C51.68480832 2.7440062 53.94303546 5.92044916 56 10 C57.03123597 17.67411433 57.18447099 25.08737201 52.38671875 31.484375 C50.96658001 33.03652664 49.50730159 34.53248056 48 36 C48.68707031 36.53109375 49.37414062 37.0621875 50.08203125 37.609375 C50.98308594 38.31578125 51.88414062 39.0221875 52.8125 39.75 C53.70582031 40.44609375 54.59914063 41.1421875 55.51953125 41.859375 C57.77630135 43.80694982 59.46473754 45.45483068 61 48 C61 52.16416638 60.56387494 54.2994281 57.9375 57.5625 C56.968125 58.366875 55.99875 59.17125 55 60 C54.46632813 60.46019531 53.93265625 60.92039063 53.3828125 61.39453125 C43.23178567 69.6504093 30.59175791 75.62499703 17.43359375 75.37109375 C4.15616573 73.93610437 -8.82171993 64.29595033 -18 55 C-20 52 -20 52 -19.90625 49.63671875 C-18.74206435 46.24954066 -16.9676512 44.39338203 -14.5 41.8125 C-11.38154906 38.6654128 -11.38154906 38.6654128 -9 35 C-9.7425 34.525625 -10.485 34.05125 -11.25 33.5625 C-16.1385834 29.00722911 -18.20282401 23.58809362 -18.5 16.9375 C-18.21496585 10.61760497 -15.92600574 6.20114942 -11.8125 1.5 C-7.81941377 -0.62964599 -4.4306937 -0.77476611 0 0 Z " fill="#E0800D" transform="translate(232,112)"/>
<path d="M0 0 C4.17074687 2.22439833 6.31219979 5.43736422 8.28515625 9.62890625 C9.60873268 14.0191297 9.29998368 18.4669133 9 23 C9.66 22.67 10.32 22.34 11 22 C14.3 22 17.6 22 21 22 C21 35.86 21 49.72 21 64 C9.92754336 64 2.35593468 60.78136135 -5.96484375 53.55078125 C-8.20471587 51.84400729 -10.35493554 50.93382276 -13 50 C-13.66 50.99 -14.32 51.98 -15 53 C-4.44284615 62.36521712 6.78425481 68.724228 21 70 C21 71.65 21 73.3 21 75 C9.42624353 76.3151996 -1.13705322 68.57855346 -10 62 C-13.85476085 58.92230998 -17.25403032 56.11895452 -20 52 C-19.81506693 47.33814545 -17.63739179 45.09385439 -14.5 41.8125 C-11.38154906 38.6654128 -11.38154906 38.6654128 -9 35 C-9.7425 34.525625 -10.485 34.05125 -11.25 33.5625 C-16.1385834 29.00722911 -18.20282401 23.58809362 -18.5 16.9375 C-18.21496585 10.61760497 -15.92600574 6.20114942 -11.8125 1.5 C-7.81941377 -0.62964599 -4.4306937 -0.77476611 0 0 Z " fill="#FC9910" transform="translate(232,112)"/>
<path d="M0 0 C2.83053031 0.91800983 5.64248459 1.86470834 8.42578125 2.91796875 C11.26936373 3.99202813 14.12635116 5.00921751 17 6 C17.88300781 6.30550781 18.76601562 6.61101562 19.67578125 6.92578125 C31.97729426 10.5970956 45.40128564 9.57009104 58 8 C57.98839844 8.81984375 57.97679687 9.6396875 57.96484375 10.484375 C57.95582031 11.56203125 57.94679688 12.6396875 57.9375 13.75 C57.92589844 14.81734375 57.91429687 15.8846875 57.90234375 16.984375 C57.98489913 19.53368501 58.25382442 21.57933591 59 24 C58.36320312 23.9278125 57.72640625 23.855625 57.0703125 23.78125 C41.14348453 22.26038579 23.9660426 21.06963757 8.44140625 25.44140625 C6 26 6 26 3 25 C3.33 24.34 3.66 23.68 4 23 C4.17603147 20.58750308 4.26744968 18.16849105 4.3125 15.75 C4.34988281 14.44546875 4.38726562 13.1409375 4.42578125 11.796875 C3.94032376 7.46784124 2.57890825 5.43854433 0 2 C0 1.34 0 0.68 0 0 Z " fill="#373634" transform="translate(218,374)"/>
<path d="M0 0 C3.68480832 2.7440062 5.94303546 5.92044916 8 10 C9.037911 17.72378766 9.14406184 25.11033029 4.38671875 31.58203125 C3 33 3 33 0 35 C-2.1875 34.625 -2.1875 34.625 -4 34 C-3.34 33.278125 -2.68 32.55625 -2 31.8125 C1.28603949 26.93606417 0.80500486 20.61327717 0 15 C-1.40134942 12.64454697 -1.40134942 12.64454697 -3 11 C-5.43717258 11.27034634 -5.43717258 11.27034634 -8 12 C-10.49118953 15.7367843 -10.2065226 17.74451819 -10.125 22.1875 C-10.09792969 24.09595703 -10.09792969 24.09595703 -10.0703125 26.04296875 C-10.04710937 27.01878906 -10.02390625 27.99460938 -10 29 C-14.75 27.125 -14.75 27.125 -17 26 C-18.81847072 20.80269336 -19.08102672 14.0582414 -17.24609375 8.8671875 C-16.25 7.0625 -16.25 7.0625 -14 4 C-13.46375 3.195625 -12.9275 2.39125 -12.375 1.5625 C-8.48711951 -0.99531611 -4.49570868 -0.84659449 0 0 Z " fill="#DCDCDB" transform="translate(280,112)"/>
<path d="M0 0 C3.64331933 1.28625013 6.15613965 2.78693445 9.0625 5.3125 C16.89357853 11.50994294 25.05904475 14.85053042 35.1171875 14.3515625 C46.2337287 12.99588674 53.46092191 8.01027047 61 0 C62.65 0.66 64.3 1.32 66 2 C66 5.89437784 64.92798223 6.56329484 62.25 9.3125 C53.33091488 17.97715797 43.49306277 21.31822769 31.35131836 21.38720703 C17.7007094 21.11354914 6.80464248 12.76159541 -3 4 C-2.01 2.68 -1.02 1.36 0 0 Z " fill="#B15030" transform="translate(219,161)"/>
<path d="M0 0 C4.86577008 2.59507738 7.35681502 6.85076792 9 12 C9.7063792 16.75200553 10.02346328 20.55303468 7.1875 24.5625 C5 26 5 26 2 27 C1.95101562 26.25234375 1.90203125 25.5046875 1.8515625 24.734375 C1.77679688 23.74953125 1.70203125 22.7646875 1.625 21.75 C1.55539063 20.77546875 1.48578125 19.8009375 1.4140625 18.796875 C1.00831903 16.05619268 0.56191967 14.27955843 -1 12 C-4.05908413 11.18415432 -4.05908413 11.18415432 -7 11 C-10.44351266 15.16091113 -10.49017404 19.0852284 -10.37109375 24.26171875 C-9.82470054 28.2935255 -8.34115111 30.70775626 -6 34 C-7.485 34.495 -7.485 34.495 -9 35 C-14.22541419 32.05233046 -16.37039015 27.56855986 -18 22 C-19.04569693 15.1660009 -17.97555065 9.67562165 -14 4 C-9.98853428 -0.58453225 -5.77935586 -1.01059775 0 0 Z " fill="#DFDFDF" transform="translate(232,112)"/>
<path d="M0 0 C-0.01160156 0.81984375 -0.02320313 1.6396875 -0.03515625 2.484375 C-0.04417969 3.56203125 -0.05320312 4.6396875 -0.0625 5.75 C-0.07410156 6.81734375 -0.08570313 7.8846875 -0.09765625 8.984375 C-0.01510087 11.53368501 0.25382442 13.57933591 1 16 C-7.00722587 15.40168583 -15.00516093 14.74618498 -23 14 C-23 10.04 -23 6.08 -23 2 C-19.54177349 1.66552559 -16.08342898 1.3323685 -12.625 1 C-11.64015625 0.90460938 -10.6553125 0.80921875 -9.640625 0.7109375 C-8.69960938 0.62070312 -7.75859375 0.53046875 -6.7890625 0.4375 C-5.91975098 0.35371094 -5.05043945 0.26992188 -4.15478516 0.18359375 C-2 0 -2 0 0 0 Z " fill="#010203" transform="translate(276,382)"/>
<path d="M0 0 C3.48384489 0.23225633 5.3999146 0.37991175 7.875 2.9375 C9.49403676 7.34487785 9.68673255 11.36074011 9 16 C6.70741409 20.07570828 4.43888167 21.64367505 0 23 C-4.01486024 18.35781784 -4.60601159 14.73777071 -4.40625 8.63671875 C-3.82091028 4.83763885 -2.49165103 2.88097151 0 0 Z " fill="#090A08" transform="translate(225,122)"/>
<path d="M0 0 C1.65 0.66 3.3 1.32 5 2 C5 5.89437784 3.92798223 6.56329484 1.25 9.3125 C-5.51028365 15.87993879 -14.17350772 20.9028918 -23.75 21.0625 C-24.8225 21.041875 -25.895 21.02125 -27 21 C-27 19.02 -27 17.04 -27 15 C-25.948125 14.74476563 -25.948125 14.74476563 -24.875 14.484375 C-14.04795274 11.71877054 -7.58179995 8.30771696 0 0 Z " fill="#A0422A" transform="translate(280,161)"/>
<path d="M0 0 C2.90491219 0.31404456 4.542934 0.54184575 6.640625 2.64453125 C8.40968892 5.709892 8.43342507 7.91268485 8.4375 11.4375 C8.45683594 12.54996094 8.47617187 13.66242188 8.49609375 14.80859375 C7.90838147 18.58938849 6.59357478 20.25235147 4 23 C-0.75 21.125 -0.75 21.125 -3 20 C-4.6306238 15.10812861 -4.52972902 10.10466145 -4 5 C-2 1.75 -2 1.75 0 0 Z " fill="#040503" transform="translate(273,122)"/>
</svg>
