<?xml version="1.0" encoding="UTF-8"?>
<svg version="1.1" xmlns="http://www.w3.org/2000/svg" width="480" height="480">
<path d="M0 0 C3.3536837 0.016127 6.70616594 0.00000491 10.05981445 -0.01904297 C44.39569345 -0.05287898 83.01153649 3.79599136 109.22583008 28.32861328 C120.86942735 40.73371164 122.94090573 55.17118114 122.93359375 71.52612305 C122.93863167 73.15959435 122.93863167 73.15959435 122.94377136 74.82606506 C122.95323744 78.41156163 122.95522254 81.99701125 122.95629883 85.58251953 C122.95951528 88.09105956 122.96287964 90.5995994 122.96638489 93.10813904 C122.97236592 98.36433209 122.97426894 103.62051335 122.97363281 108.87670898 C122.97309995 114.24880952 122.98011466 119.62083792 122.99414062 124.99291992 C123.0108968 131.50553249 123.01768552 138.01808048 123.01702309 144.53071404 C123.01819552 146.99959618 123.02257546 149.46847915 123.03035545 151.93734932 C123.09842139 175.77528123 122.88660473 197.7224283 105.53833008 216.07861328 C91.06663797 229.92424217 71.87090537 233.70396436 52.47680664 233.66235352 C50.50501604 233.67037697 48.53322545 233.67840282 46.56143522 233.68651879 C44.46345401 233.69332899 42.36551637 233.69537082 40.26752472 233.69607353 C35.86860885 233.69803358 31.46984645 233.71619235 27.07098389 233.73683167 C16.14551019 233.78576067 5.21999519 233.81682517 -5.70556641 233.83813477 C-14.20288513 233.85473263 -22.70007043 233.87774932 -31.1973002 233.92115551 C-34.84680559 233.93921517 -38.49612937 233.95156748 -42.14568329 233.94985771 C-67.59782402 233.39177056 -67.59782402 233.39177056 -91.52416992 241.01611328 C-92.18803711 241.36383789 -92.8519043 241.7115625 -93.53588867 242.06982422 C-107.72733853 249.80747757 -116.07064065 261.74115638 -121.20385742 276.87158203 C-123.97950988 286.56484894 -124.54905311 295.55570417 -124.62573242 305.58251953 C-124.64447254 307.1390838 -124.664048 308.69563821 -124.68441772 310.25218201 C-124.73544499 314.32087354 -124.77522674 318.38959791 -124.81256104 322.45843506 C-124.85278654 326.62162195 -124.90379365 330.78467576 -124.95385742 334.94775391 C-125.05026785 343.09544898 -125.13478259 351.24321068 -125.21166992 359.39111328 C-131.23989697 359.44103172 -137.26800026 359.47707526 -143.29638672 359.50097656 C-145.34165547 359.51095427 -147.38691026 359.52454124 -149.43212891 359.54199219 C-179.29681358 359.79019538 -179.29681358 359.79019538 -190.33666992 353.89111328 C-191.00770752 353.54072998 -191.67874512 353.19034668 -192.37011719 352.8293457 C-211.71041154 342.27189109 -222.21344483 322.24722434 -228.50073242 301.87988281 C-232.97181321 286.30236729 -235.34142133 269.93823338 -235.41479492 253.75048828 C-235.420495 252.7476178 -235.42619507 251.74474731 -235.43206787 250.71148682 C-235.44146958 248.59363848 -235.44803251 246.47577583 -235.4519043 244.35791016 C-235.4615166 241.19161756 -235.49254807 238.02600148 -235.52416992 234.85986328 C-235.65191611 210.4004708 -232.86228655 185.28623764 -221.21166992 163.39111328 C-220.42663086 161.869375 -220.42663086 161.869375 -219.62573242 160.31689453 C-210.70019521 143.95340964 -197.8381633 133.85767844 -180.63745117 127.36376953 C-170.15730803 124.38822148 -159.97770163 124.11330432 -149.17382812 124.1640625 C-147.47764594 124.16462764 -145.78146327 124.16430805 -144.08528137 124.16317749 C-139.51165486 124.16260698 -134.93813466 124.1743121 -130.36453271 124.18832541 C-125.57328353 124.20088339 -120.78203153 124.20200724 -115.99076843 124.20437622 C-106.93170699 124.21057616 -97.8726942 124.22696675 -88.81365412 124.2470752 C-78.49437609 124.26948061 -68.17509565 124.28043928 -57.85579932 124.29046607 C-36.6410617 124.31133437 -15.4263706 124.34688726 5.78833008 124.39111328 C5.78833008 119.11111328 5.78833008 113.83111328 5.78833008 108.39111328 C-32.82166992 108.39111328 -71.43166992 108.39111328 -111.21166992 108.39111328 C-111.27354492 98.53236328 -111.33541992 88.67361328 -111.39916992 78.51611328 C-111.44013794 73.87572998 -111.44013794 73.87572998 -111.48193359 69.14160156 C-111.49070285 66.66488026 -111.49834574 64.18815461 -111.50463867 61.71142578 C-111.52766052 59.81251587 -111.52766052 59.81251587 -111.55114746 57.87524414 C-111.55509838 44.39206617 -108.21660287 34.8795738 -99.21166992 24.82861328 C-74.44167452 1.26157571 -31.92026026 -0.18164298 0 0 Z M-74.08666992 42.70361328 C-75.13854492 44.03392578 -75.13854492 44.03392578 -76.21166992 45.39111328 C-76.95416992 46.29861328 -77.69666992 47.20611328 -78.46166992 48.14111328 C-81.43513013 53.66325366 -81.87810216 58.8717718 -80.33666992 64.95361328 C-78.25344041 70.49266745 -73.94331848 74.03095706 -69.21166992 77.39111328 C-63.71459722 79.22347085 -57.24519747 79.56837599 -51.78588867 77.44970703 C-46.2456626 74.12139796 -41.90959934 69.75834859 -40.21166992 63.39111328 C-39.42693421 56.51873083 -40.1350482 51.08060404 -44.21166992 45.39111328 C-48.57671817 40.82303954 -53.18871336 38.8727606 -59.21166992 37.39111328 C-64.58955458 37.39111328 -69.95372597 39.3792888 -74.08666992 42.70361328 Z " fill="#3672A4" transform="translate(235.211669921875,-0.39111328125)"/>
<path d="M0 0 C5.88581141 -0.0499351 11.77149586 -0.08596958 17.6574707 -0.10986328 C19.65423739 -0.11983827 21.65098978 -0.13342309 23.64770508 -0.15087891 C46.74299008 -0.34753297 64.52408257 1.62566697 82.25 18.08984375 C106.25630957 43.26833641 110.59789926 82.96792625 110.39111328 116.01391602 C110.37498642 119.06506888 110.39110358 122.11490149 110.41015625 125.16601562 C110.44155343 154.38417114 106.36458972 188.34374289 86 211 C84.9171875 212.485 84.9171875 212.485 83.8125 214 C73.12967773 226.57420719 56.90905894 232.72084223 41 235 C38.58412262 235.08680703 36.16612354 235.12201907 33.74868774 235.12025452 C33.04119019 235.12110894 32.33369263 235.12196337 31.60475576 235.12284368 C29.24640604 235.12448397 26.88812827 235.119001 24.52978516 235.11352539 C22.83434043 235.11324318 21.13889558 235.11340192 19.44345093 235.1139679 C14.8489007 235.11425454 10.25437663 235.10837917 5.65983248 235.10139394 C0.85520339 235.0951384 -3.94942631 235.09455486 -8.75405884 235.09336853 C-17.8486852 235.09026171 -26.94329953 235.08205705 -36.03792059 235.07201904 C-46.39336288 235.06083777 -56.74880575 235.05534237 -67.10425258 235.05032361 C-88.40284195 235.03987391 -109.70141979 235.02208534 -131 235 C-131 240.28 -131 245.56 -131 251 C-92.39 251 -53.78 251 -14 251 C-13.9175 260.8175 -13.835 270.635 -13.75 280.75 C-13.71358398 283.82538086 -13.67716797 286.90076172 -13.63964844 290.06933594 C-13.62795233 292.54100855 -13.6177627 295.01268894 -13.609375 297.484375 C-13.58891113 298.74008301 -13.56844727 299.99579102 -13.54736328 301.28955078 C-13.542006 314.99882178 -17.14430538 324.67863276 -26.515625 334.60546875 C-39.32834525 346.67401585 -57.20575134 351.79303841 -74 355.25 C-74.73299316 355.40114258 -75.46598633 355.55228516 -76.22119141 355.70800781 C-92.32292331 358.76481828 -108.33304514 359.34706353 -124.68359375 359.31567383 C-128.09928656 359.31252371 -131.5141015 359.33603295 -134.9296875 359.36132812 C-168.72164489 359.45789656 -208.38167009 355.68675428 -234 331 C-245.23936059 318.1011365 -248.32569181 304.17014417 -248.25878906 287.41674805 C-248.2622937 286.31596924 -248.26579834 285.21519043 -248.26940918 284.08105469 C-248.27814679 280.47454349 -248.27240432 276.86823164 -248.265625 273.26171875 C-248.26697423 270.73265038 -248.2689169 268.20358226 -248.27142334 265.67451477 C-248.27436407 260.38495895 -248.27030584 255.09545397 -248.26074219 249.8059082 C-248.2498775 243.72734492 -248.2533749 237.64891606 -248.264395 231.57035607 C-248.27463784 225.68051819 -248.27346001 219.79073055 -248.26763153 213.90088844 C-248.2663061 211.41443678 -248.26790354 208.92798164 -248.27259064 206.44153404 C-248.33784549 162.0890108 -248.33784549 162.0890108 -232 145 C-231.43023437 144.37867188 -230.86046875 143.75734375 -230.2734375 143.1171875 C-216.22360116 129.31492537 -196.05330611 125.85870096 -177.234375 125.84228516 C-175.27836556 125.83448551 -173.32235613 125.82668184 -171.36634731 125.81872725 C-169.27333649 125.81103941 -167.18032995 125.80564176 -165.08731079 125.80076981 C-160.70554684 125.79002036 -156.32385822 125.7697551 -151.94213867 125.74765015 C-139.48506145 125.68596589 -127.02798892 125.63184936 -114.57080078 125.59863281 C-107.68313311 125.5801874 -100.79559231 125.55112745 -93.90801811 125.5106281 C-90.2729975 125.4897204 -86.63813562 125.47412424 -83.00305176 125.47182083 C-58.33090497 125.45168533 -36.8380555 124.94504758 -17.8125 107.3125 C-6.85145895 95.75478937 -0.99397034 78.80764799 -0.79467773 63.0065918 C-0.78477814 62.32311172 -0.77487854 61.63963165 -0.76467896 60.93544006 C-0.73324594 58.69006746 -0.70837905 56.44467374 -0.68359375 54.19921875 C-0.66300847 52.63694223 -0.6420116 51.07467109 -0.62062073 49.5124054 C-0.56556249 45.41076014 -0.51608192 41.30906599 -0.46777344 37.20733643 C-0.41743939 33.01773757 -0.3618156 28.82820928 -0.30664062 24.63867188 C-0.19925794 16.42584101 -0.09776924 8.21295091 0 0 Z M-81.375 288.5 C-85.09105764 294.21701175 -85.82261573 299.25455101 -85 306 C-83.21776629 311.83276488 -80.11149596 315.6244838 -75 319 C-69.37462778 321.87207104 -64.57780341 322.53791098 -58.4296875 320.99609375 C-53.17015892 318.83985615 -49.59608801 314.95649498 -46.0625 310.625 C-43.56023574 304.44293536 -43.35480748 298.47950722 -45.7109375 292.21484375 C-48.63973104 287.18264394 -53.47378534 282.84207155 -59 281 C-68.7031022 279.99375236 -74.64388454 281.4146153 -81.375 288.5 Z " fill="#FFD242" transform="translate(370,121)"/>
</svg>
